# xmcd
#
# Track frame offsets:
#	150
#	14050
#	28988
#	46419
#	57177
#	73512
#	91387
#	107102
#	118432
#	133274
#	145214
#	160091
#	174756
#	191341
#	210351
#	228156
#	242869
#	256787
#
# Disc length: 3566 seconds
#
# Revision: 0
# Processed by: cddbd v1.5.1PL2 Copyright (c) Steve Scherf et al.
# Submitted via: audiograbber 1.83.01
#
DISCID=fd0dec12
DTITLE=VERSCHIEDENE - DEUTSCHES COUNTRY QUARTETT CD 1
DYEAR=1900
DGENRE=COUNTRY
TTITLE0=TENNESSEE - TAUSCHE UFO GEGEN 30-TONNER DIESEL
TTITLE1=CISSY - DADDY IST AUF DER AUTOBAHN
TTITLE2=TENNESSEE - HEUT' NACHT LASS ICH DIE FLASCHE STEH'N
TTITLE3=CISSY - MUTTER UND KIND
TTITLE4=TENNESSEE - HEY MÄDCHEN DU TRÄUMST
TTITLE5=CISSY - DU HAST 'NEN ENGEL ZUHAUS
TTITLE6=TENNESSEE - ICH KANN NICHT AUFHÖR'N DICH ZU LIEBEN
TTITLE7=CISSY - FLENSBURG
TTITLE8=TENNESSEE - ICH MACH' MEIN RADIO AN
TTITLE9=CISSY - GEBT MIR 'NE STEEL-GITARRE
TTITLE10=TENNESSEE - KNITTERFREIER FLUG
TTITLE11=CISSY - EINEN TRUCKER LEGST DU NIEMALS AN DIE LEINE
TTITLE12=TENNESSEE - KOMM MIT MIR
TTITLE13=CISSY - TRUCKER FÜHL'N SICH FREI
TTITLE14=TENNESSEE - OH SUSI
TTITLE15=CISSY - TRUCKIN' COWBOY
TTITLE16=TENNESSEE - WO BIST DU?
TTITLE17=CISSY - TRUCKERFESTE
EXTD=
EXTT0=
EXTT1=
EXTT2=
EXTT3=
EXTT4=
EXTT5=
EXTT6=
EXTT7=
EXTT8=
EXTT9=
EXTT10=
EXTT11=
EXTT12=
EXTT13=
EXTT14=
EXTT15=
EXTT16=
EXTT17=
PLAYORDER=
